<?xml version="1.0" standalone="no"?>
<!DOCTYPE svg PUBLIC "-//W3C//DTD SVG 20010904//EN"
 "http://www.w3.org/TR/2001/REC-SVG-20010904/DTD/svg10.dtd">
<svg version="1.0" xmlns="http://www.w3.org/2000/svg"
 width="194.000000pt" height="194.000000pt" viewBox="0 0 194.000000 194.000000"
 preserveAspectRatio="xMidYMid meet">
<metadata>
Created by potrace 1.11, written by Peter Selinger 2001-2013
</metadata>
<g transform="translate(0.000000,194.000000) scale(0.100000,-0.100000)"
fill="#000000" stroke="none">
<path d="M908 1822 c-22 -4 -24 -22 -3 -22 8 0 15 -5 15 -12 0 -6 -26 -81 -57
-166 -41 -109 -63 -156 -75 -160 -10 -2 -18 -8 -18 -12 0 -8 72 -18 89 -12 16
5 13 22 -4 22 -18 0 -19 13 -3 57 13 37 10 36 97 34 72 -1 86 -9 95 -53 4 -23
2 -34 -11 -44 -16 -12 -10 -13 40 -14 36 0 56 4 52 10 -3 6 -13 10 -20 10 -17
0 -30 28 -87 185 -52 142 -55 155 -34 155 22 0 21 20 -1 21 -10 0 -27 2 -38 3
-11 1 -28 0 -37 -2z m48 -75 c1 -7 14 -42 28 -80 37 -96 37 -95 -39 -94 -80 2
-79 -5 -19 152 8 21 11 31 13 42 2 9 15 -5 17 -20z"/>
<path d="M960 1266 c0 -9 5 -16 10 -16 6 0 10 4 10 9 0 6 -4 13 -10 16 -5 3
-10 -1 -10 -9z"/>
<path d="M865 1240 c-11 -5 -31 -9 -44 -9 -14 -1 -32 -8 -40 -15 -9 -8 -30
-17 -46 -20 -17 -3 -43 -8 -60 -12 -31 -6 -45 -19 -44 -44 0 -10 3 -8 9 5 5
11 9 16 9 12 1 -4 10 -3 20 2 15 8 20 7 25 -5 3 -8 10 -12 16 -9 6 4 21 8 35
11 21 4 24 1 22 -18 -1 -13 -4 -25 -7 -28 -17 -17 -53 -76 -53 -86 0 -7 -4
-11 -9 -8 -4 3 -8 -2 -8 -11 0 -9 -4 -13 -10 -10 -6 3 -7 -1 -4 -9 3 -9 11
-13 18 -9 8 4 8 3 0 -6 -12 -14 -64 1 -64 19 0 5 -3 9 -7 9 -18 -4 -73 24 -73
36 0 16 64 68 87 71 17 3 59 44 44 44 -5 0 -17 -7 -26 -16 -11 -12 -19 -13
-29 -5 -16 13 -74 -46 -141 -144 -39 -57 -42 -65 -25 -65 14 0 20 -7 20 -22 1
-13 11 8 24 45 13 37 26 71 30 74 3 3 14 -1 24 -10 10 -10 22 -14 25 -10 4 3
7 1 7 -5 0 -6 12 -18 28 -26 15 -8 23 -15 17 -16 -5 0 -3 -4 5 -10 11 -7 2
-21 -46 -70 -34 -33 -57 -63 -53 -66 5 -3 9 -1 9 4 0 5 17 17 38 28 45 23 73
49 64 60 -4 4 -1 4 6 -1 10 -5 11 -10 3 -18 -15 -15 -14 -30 1 -21 7 5 8 3 2
-7 -4 -8 -9 -30 -10 -49 -3 -66 -4 -70 -18 -70 -22 0 -46 -29 -46 -56 0 -13
-5 -24 -11 -24 -5 0 -7 -5 -4 -10 5 -8 12 -7 23 2 15 12 16 11 3 -5 -12 -15
-12 -17 3 -11 9 3 16 15 16 26 0 17 3 18 15 8 17 -14 20 -75 5 -85 -5 -3 -10
0 -10 7 0 9 -3 9 -10 -2 -8 -12 -10 -12 -10 5 0 11 -13 29 -29 40 -49 35 -124
105 -112 105 6 0 11 6 11 14 0 8 12 24 26 35 15 12 22 21 17 21 -5 0 -18 -8
-29 -18 -32 -30 -45 -17 -29 29 16 45 12 51 -9 12 l-15 -28 -2 40 c-1 22 -1
48 0 58 1 9 -3 17 -8 17 -6 0 -12 -15 -12 -32 -1 -18 -3 -49 -4 -68 -1 -19 3
-41 9 -49 8 -11 8 -13 -1 -7 -8 4 -13 2 -14 -6 -5 -58 -7 -79 -13 -118 -4 -25
-9 -52 -11 -60 -3 -8 10 -31 28 -50 35 -39 50 -61 70 -100 6 -14 26 -40 43
-57 17 -18 39 -49 50 -68 14 -27 29 -38 59 -46 22 -6 45 -15 50 -19 6 -5 24
-11 40 -14 17 -3 68 -21 114 -40 63 -26 89 -32 103 -25 10 5 37 11 61 13 23 2
44 5 47 6 3 1 17 1 32 0 15 -1 37 4 50 11 13 7 28 13 33 14 22 1 105 38 105
47 0 6 30 42 66 82 37 39 72 82 78 96 6 13 25 39 41 56 17 17 31 41 32 55 0
13 4 49 8 79 10 82 10 262 0 284 -6 14 -5 17 3 12 8 -4 10 -2 6 7 -3 8 -17 17
-32 21 -20 4 -38 23 -67 72 -22 36 -39 70 -38 75 4 13 -29 49 -39 43 -4 -3 -8
2 -8 10 0 8 -10 18 -22 22 -37 11 -132 57 -139 66 -3 5 -28 10 -56 12 -28 2
-60 7 -72 11 -15 4 -21 2 -21 -9 0 -8 -8 -17 -17 -19 -18 -5 55 -11 94 -8 30
3 37 -14 19 -46 -8 -16 -17 -39 -20 -53 -11 -47 -21 -55 -53 -41 -17 7 -44 25
-62 42 -18 16 -46 36 -62 45 -41 20 -35 47 11 54 29 4 32 7 15 13 -16 7 -17
10 -5 17 20 13 -36 12 -65 0z m0 -85 c14 -14 25 -22 25 -18 0 12 20 -20 20
-32 0 -5 -5 -3 -10 5 -5 8 -10 10 -10 4 0 -16 11 -24 24 -17 17 11 36 12 37 2
1 -5 2 -14 3 -21 0 -6 8 -13 16 -15 13 -4 13 -3 0 6 -19 14 -5 14 20 1 17 -9
17 -13 5 -37 -10 -20 -11 -31 -3 -40 10 -12 4 -17 -15 -14 -5 1 -6 -3 -2 -9 3
-5 1 -10 -5 -10 -6 0 -9 -4 -5 -9 3 -5 1 -12 -5 -16 -6 -4 -8 -11 -5 -16 4 -5
1 -9 -5 -9 -17 0 -6 -25 11 -25 8 -1 17 4 22 10 4 5 5 -1 3 -15 -3 -14 -5 -25
-6 -25 -1 0 -4 -13 -6 -30 -6 -36 -30 -75 -47 -75 -6 0 -21 14 -32 30 -11 16
-26 30 -33 30 -7 0 -12 6 -11 13 4 32 -2 54 -16 54 -8 0 -15 -7 -15 -16 0 -14
-2 -14 -10 -1 -8 11 -12 12 -18 3 -6 -9 -15 -6 -34 12 -14 13 -28 22 -31 19
-3 -3 -4 5 -3 19 0 13 6 24 11 24 6 1 42 11 80 23 39 12 87 25 108 30 49 10
66 25 48 43 -11 10 -12 9 -6 -1 5 -10 0 -12 -23 -9 -20 3 -32 0 -36 -8 -2 -7
-13 -12 -23 -11 -10 2 -22 -2 -26 -8 -5 -6 -6 0 -3 14 3 14 3 19 0 12 -3 -6
-11 -9 -16 -6 -7 5 -8 2 -4 -5 5 -8 0 -14 -13 -18 -11 -3 -18 -9 -15 -14 3 -5
0 -9 -5 -9 -6 0 -11 4 -11 10 0 5 -11 9 -24 8 -14 -1 -22 -6 -20 -10 3 -5 11
-5 17 -2 7 4 8 3 4 -2 -5 -5 -12 -9 -15 -9 -4 0 -12 -4 -19 -8 -6 -4 -15 -2
-19 4 -4 8 -3 9 4 5 7 -4 12 -2 12 3 0 6 -6 11 -12 11 -10 0 -10 2 0 9 8 4 13
10 12 12 -4 10 13 39 23 39 5 0 2 -10 -9 -22 l-19 -23 23 19 c15 13 19 23 13
29 -13 13 6 50 21 41 7 -5 8 -2 2 7 -12 20 -14 38 -3 45 5 3 7 10 4 15 -4 5
-1 9 5 9 6 0 8 5 5 10 -13 22 46 9 70 -15z m305 5 c0 -15 7 -20 26 -20 25 0
94 -59 94 -80 0 -5 9 -12 20 -15 24 -8 26 -21 4 -29 -11 -4 -15 -2 -11 8 5 14
-16 17 -28 4 -4 -3 -19 -3 -33 1 -15 4 -55 6 -89 6 -50 -1 -63 2 -64 15 -2 29
3 45 22 66 10 11 19 27 19 35 0 19 9 29 27 29 7 0 13 -9 13 -20z m136 -65 c1
-8 -2 -15 -7 -15 -5 0 -9 10 -9 22 0 23 12 17 16 -7z m-260 -84 c-8 -12 -46
-21 -46 -11 0 5 10 11 23 13 12 2 23 5 25 6 2 0 1 -3 -2 -8z m86 -13 c5 -14
38 -20 38 -7 0 6 9 5 21 -2 12 -6 19 -7 15 -1 -9 15 67 19 116 7 27 -6 43 -16
44 -25 1 -31 -18 -69 -38 -76 -17 -5 -18 -8 -7 -16 11 -8 10 -8 -4 -4 -22 7
-60 -11 -52 -24 3 -6 0 -7 -8 -4 -8 3 -14 -2 -14 -11 0 -10 6 -14 16 -10 12 5
13 3 5 -5 -9 -9 -17 -8 -33 2 -25 15 -63 87 -54 101 3 6 1 7 -5 3 -7 -4 -12
-1 -12 8 0 9 -6 16 -14 16 -7 0 -20 8 -27 17 -12 14 -12 16 0 9 9 -6 12 -5 9
5 -3 8 -11 13 -17 12 -6 -2 -11 2 -11 7 0 14 27 13 32 -2z m-102 -18 c0 -5 -8
-10 -17 -10 -15 0 -16 -2 -3 -10 9 -6 10 -10 3 -10 -6 0 -15 -9 -18 -20 -3
-11 -11 -20 -17 -20 -6 0 -6 6 2 15 7 9 10 18 6 22 -7 7 22 43 36 43 4 0 8 -4
8 -10z m54 -6 c4 -10 2 -13 -6 -8 -7 4 -8 3 -4 -4 4 -7 12 -12 17 -12 18 0 41
-29 33 -41 -4 -7 -3 -9 4 -5 6 3 19 -7 28 -24 10 -16 22 -30 26 -30 4 0 8 -6
8 -13 0 -7 13 -27 29 -44 16 -18 26 -34 23 -37 -3 -3 0 -6 5 -6 15 0 10 -30
-6 -40 -15 -9 -101 -3 -116 9 -5 5 -27 7 -47 6 -22 -1 -38 3 -38 9 0 8 -2 8
-8 0 -4 -6 -15 -13 -24 -17 -38 -14 -41 52 -5 107 8 11 16 35 19 51 8 46 12
58 26 73 6 7 12 20 12 28 0 19 16 18 24 -2z m319 -54 c7 0 6 -5 -3 -11 -12 -9
-11 -10 8 -6 12 3 22 1 22 -4 0 -5 -7 -9 -16 -9 -8 0 -12 -5 -9 -10 4 -6 12
-7 18 -4 8 5 8 3 0 -7 -15 -16 -17 -33 -3 -24 6 3 10 -2 10 -12 0 -10 10 -36
22 -59 12 -22 19 -48 15 -56 -7 -20 -79 -33 -105 -19 -11 6 -23 7 -27 3 -5 -4
-5 -1 -1 6 4 6 2 12 -4 12 -13 0 -9 42 4 52 6 3 11 19 14 35 2 15 7 32 12 37
14 14 39 -12 35 -37 -4 -20 -4 -20 13 -4 15 16 15 19 2 27 -8 5 -15 15 -15 22
-1 7 -7 12 -14 10 -7 -1 -11 3 -8 10 2 7 0 21 -5 31 -5 11 -5 17 2 17 5 0 9 3
9 8 -3 20 4 34 8 15 2 -13 10 -23 16 -23z m-690 -52 c-2 -4 3 -5 12 -2 13 5
15 1 10 -25 -5 -31 7 -42 21 -19 5 7 3 8 -6 3 -9 -5 -11 -4 -6 3 12 20 36 13
36 -9 0 -11 -4 -18 -8 -15 -4 2 -14 1 -22 -5 -13 -7 -13 -9 0 -10 8 -1 18 -1
23 0 10 1 9 -7 -4 -31 -8 -15 -8 -19 0 -14 6 4 11 2 11 -3 0 -14 -17 -14 -25
-1 -8 14 -18 13 -41 -5 -19 -15 -19 -15 1 -9 16 5 17 4 5 -5 -22 -16 -27 -14
-32 14 -3 14 -1 25 4 25 5 0 6 5 2 12 -4 7 -3 8 5 4 6 -4 9 -11 7 -15 -3 -4 1
-8 7 -8 7 0 14 9 14 19 1 10 -2 16 -8 13 -8 -5 -11 8 -8 31 0 4 -5 10 -11 14
-9 5 -9 13 -2 26 8 14 6 21 -6 32 -10 7 -11 11 -4 7 6 -3 12 0 13 7 0 7 4 4 8
-7 5 -11 7 -23 4 -27z m760 -19 c6 -21 -8 -26 -20 -6 -13 20 -12 36 2 31 7 -3
15 -14 18 -25z m-173 -24 c14 -19 14 -19 -2 -6 -10 7 -18 18 -18 24 0 6 1 8 3
6 1 -2 9 -13 17 -24z m-504 -24 c-3 -5 1 -12 10 -15 9 -3 12 -2 9 5 -4 5 16
-4 44 -21 28 -18 51 -38 51 -46 0 -20 -35 -52 -65 -60 -14 -3 -25 -10 -25 -15
0 -7 -27 -15 -84 -23 -10 -1 -25 -11 -32 -21 -12 -17 -14 -17 -14 -2 0 9 -5
17 -11 17 -5 0 -7 5 -4 10 4 6 12 7 18 3 7 -4 5 2 -3 12 -14 17 -13 18 2 12
10 -3 17 -2 15 3 -1 5 7 16 18 25 20 16 20 16 -2 6 -15 -8 -24 -8 -28 -1 -4 6
-3 10 2 9 34 -8 109 35 95 55 -6 10 -7 22 -3 49 0 4 4 7 7 7 3 0 3 -4 0 -9z
m500 1 c8 -5 7 -16 -2 -37 -12 -28 -15 -29 -18 -6 0 5 -4 12 -8 16 -7 8 1 35
11 35 3 0 11 -4 17 -8z m-652 -90 c2 -4 -4 -8 -14 -8 -10 0 -16 4 -14 8 3 4 9
8 14 8 5 0 11 -4 14 -8z m349 -18 c-7 -3 -9 -12 -6 -20 4 -10 0 -12 -11 -8
-13 5 -14 9 -5 20 6 8 17 14 23 13 7 0 7 -2 -1 -5z m160 -5 c44 -1 81 -7 84
-13 13 -21 11 -36 -5 -36 -8 0 -13 -3 -9 -6 6 -7 -17 -34 -29 -34 -16 0 -74
-52 -74 -66 0 -25 -32 -72 -52 -77 -14 -4 -23 6 -40 41 -25 54 -26 82 -3 98
26 19 16 40 -17 35 -3 0 -2 14 3 32 5 17 9 32 9 33 0 1 12 0 28 -2 15 -2 62
-5 105 -5z m-540 -14 c-3 -9 -8 -14 -10 -11 -3 3 -2 9 2 15 9 16 15 13 8 -4z
m337 -9 c0 -16 -28 -17 -33 -1 -3 6 4 12 14 12 10 1 19 -4 19 -11z m384 1 c-3
-8 6 -18 21 -25 15 -7 24 -8 20 -2 -3 5 -1 10 5 10 6 0 8 5 5 11 -5 7 5 9 26
7 43 -4 48 -29 20 -92 l-19 -45 24 10 c33 12 32 13 26 -16 -2 -14 -8 -25 -13
-25 -5 0 -8 -5 -6 -11 1 -6 -6 -13 -15 -14 -10 -2 -18 2 -18 9 0 9 -9 12 -24
9 -20 -4 -25 0 -31 26 -4 17 -10 31 -15 31 -4 0 -11 12 -16 28 -11 39 -11 46
1 55 7 6 6 10 -3 14 -10 4 -10 8 -1 19 14 18 20 18 13 1z m-771 -61 c57 -53
68 -68 62 -86 -6 -19 -11 -21 -47 -15 -29 5 -43 3 -49 -6 -8 -11 -13 -9 -28 8
-11 13 -17 31 -15 40 3 10 -2 27 -10 38 -18 24 -21 8 -8 -40 11 -37 5 -56 -13
-48 -24 9 -40 55 -35 98 4 35 8 40 28 37 19 -2 22 2 17 18 -12 39 29 20 98
-44z m399 22 c5 -7 7 -27 6 -43 -1 -17 2 -37 7 -44 4 -8 9 -34 10 -58 1 -28 7
-47 19 -56 16 -12 16 -13 -3 -13 -11 0 -18 2 -15 5 2 3 -6 11 -18 18 -18 10
-19 12 -6 13 18 0 14 30 -4 30 -5 0 -6 -6 -2 -12 5 -9 2 -9 -9 1 -14 11 -17
11 -17 0 0 -11 -2 -11 -10 1 -8 12 -10 12 -10 -5 -1 -18 -2 -18 -10 -3 -7 11
-17 14 -32 10 -20 -5 -21 -3 -10 10 13 16 6 52 -9 43 -4 -3 -6 -12 -2 -20 3
-8 0 -15 -7 -15 -6 0 -8 5 -5 10 3 6 1 10 -6 10 -7 0 -4 7 7 15 17 13 17 16 4
26 -13 9 -13 10 2 6 12 -4 16 -1 13 13 -2 11 1 22 6 25 5 4 7 10 4 15 -3 5 5
16 17 24 24 17 67 14 80 -6z m328 -18 c0 -5 -6 -10 -12 -10 -9 0 -8 -3 2 -9 8
-6 18 -7 24 -4 5 3 6 1 2 -5 -3 -6 -2 -13 4 -17 5 -3 10 -12 10 -18 0 -7 -4
-6 -10 3 -5 8 -10 12 -11 8 -1 -5 -3 -12 -4 -18 -1 -5 -3 -15 -4 -20 0 -6 -11
-2 -23 10 -12 11 -25 20 -28 20 -4 0 -7 7 -7 16 0 13 4 12 16 -5 12 -16 20
-18 31 -10 13 9 13 10 -1 6 -11 -4 -20 3 -28 19 -7 15 -7 23 -1 19 6 -3 13 1
16 9 7 18 24 22 24 6z m-435 -10 c-4 -6 -12 -7 -18 -3 -7 4 -6 0 2 -10 9 -11
10 -17 2 -17 -6 0 -11 2 -11 4 0 2 -3 11 -6 20 -4 12 0 16 16 16 12 0 18 -4
15 -10z m-66 -37 c-13 -15 -12 -15 11 -3 14 7 22 9 18 5 -4 -5 -2 -15 5 -24
11 -14 10 -14 -6 -2 -15 12 -17 12 -12 -1 7 -17 -41 -43 -50 -27 -4 5 -11 7
-16 4 -5 -4 -9 -1 -9 5 0 6 -5 8 -12 4 -7 -4 -8 -3 -4 5 4 6 19 9 33 6 20 -3
24 -2 15 7 -9 9 -7 15 10 25 31 16 33 16 17 -4z m517 -58 c-3 -9 0 -15 9 -15
8 0 15 -5 15 -11 0 -5 6 -7 13 -3 9 6 9 4 -1 -8 -7 -8 -10 -22 -6 -31 3 -8 -4
-23 -16 -35 -17 -15 -33 -19 -83 -17 -34 2 -54 1 -44 -2 9 -2 17 -8 17 -13 0
-5 3 -15 6 -23 3 -10 -2 -18 -15 -22 -13 -4 -18 -13 -16 -26 5 -25 -38 -72
-62 -67 -10 2 -19 11 -21 22 -2 10 -12 26 -23 37 -39 39 -16 88 43 90 18 1 17
3 -9 10 -38 11 -38 12 -16 50 19 33 42 36 78 13 13 -8 38 -14 57 -12 26 2 37
10 53 40 20 38 32 51 21 23z m-618 -78 c21 -61 25 -85 23 -120 -1 -17 -2 -17
-17 -3 -14 15 -28 20 -45 18 -14 -2 -80 64 -83 83 -3 23 70 96 89 89 6 -3 21
-33 33 -67z m148 16 c18 -7 14 -36 -6 -45 -13 -6 -13 -7 1 -7 9 -1 23 7 30 16
12 14 12 16 0 8 -10 -5 -12 -4 -7 4 5 8 12 9 19 2 7 -5 17 -11 22 -13 6 -1 9
-9 9 -16 -2 -10 2 -10 15 1 13 12 21 12 44 3 15 -7 24 -15 21 -19 -4 -4 -13
-2 -21 5 -11 8 -12 7 -7 -6 4 -9 3 -16 -2 -15 -21 4 -35 -2 -29 -11 3 -6 -1
-7 -9 -4 -9 3 -13 11 -9 17 3 6 1 7 -6 3 -8 -5 -9 -12 -2 -20 7 -8 5 -12 -8
-12 -24 0 -25 45 -2 63 13 11 13 13 1 11 -8 -2 -20 -14 -27 -28 -7 -14 -12
-20 -13 -13 0 6 -8 10 -17 9 -10 -2 -21 1 -24 7 -4 5 -17 -1 -30 -14 -17 -17
-21 -18 -16 -5 5 13 3 17 -7 13 -20 -8 -46 25 -46 57 l0 28 56 -7 c30 -3 62
-9 70 -12z m24 -104 c-5 -9 -6 -19 -2 -23 3 -4 -1 -4 -10 -1 -22 9 -19 41 3
41 13 0 15 -4 9 -17z m-48 -38 c-5 -14 -3 -14 11 -2 16 13 20 11 15 -6 -2 -5
-6 -7 -10 -6 -5 2 -8 -1 -8 -7 0 -5 -7 -6 -17 -3 -11 4 -14 3 -9 -5 5 -8 1
-10 -10 -5 -13 5 -15 3 -9 -7 5 -9 4 -11 -4 -6 -6 4 -9 11 -6 16 3 5 1 18 -4
28 -14 27 -1 35 21 15 11 -10 19 -13 18 -8 -2 6 -2 17 -1 25 1 13 3 13 10 1 5
-8 6 -21 3 -30z m246 -24 c14 -50 -5 -71 -57 -62 -54 10 -104 12 -121 5 -19
-8 -61 13 -52 26 4 5 30 20 57 34 28 13 53 29 56 34 11 15 83 24 96 12 6 -6
16 -28 21 -49z m188 21 c3 -4 -1 -5 -10 -4 -8 1 -18 5 -22 8 -3 4 1 5 10 4 8
-1 18 -5 22 -8z m-496 -12 c0 -2 -7 -7 -16 -10 -8 -3 -12 -2 -9 4 6 10 25 14
25 6z"/>
<path d="M870 1026 c0 -2 7 -6 15 -10 8 -3 15 -1 15 4 0 6 -7 10 -15 10 -8 0
-15 -2 -15 -4z"/>
<path d="M960 870 c0 -5 5 -10 11 -10 5 0 7 5 4 10 -3 6 -8 10 -11 10 -2 0 -4
-4 -4 -10z"/>
<path d="M1363 794 c4 -7 0 -15 -9 -18 -8 -3 -12 -10 -9 -16 3 -5 1 -10 -4
-10 -17 0 -13 -17 5 -24 8 -3 13 -2 9 3 -3 5 1 15 8 23 15 15 16 33 3 45 -5 4
-6 3 -3 -3z"/>
<path d="M1275 791 c-3 -5 -2 -12 3 -15 5 -3 9 1 9 9 0 17 -3 19 -12 6z"/>
<path d="M866 555 c-8 -21 8 -53 18 -36 4 6 1 11 -6 11 -10 0 -10 2 -1 8 7 4
9 13 4 21 -6 10 -10 9 -15 -4z"/>
<path d="M1260 586 c0 -3 9 -10 20 -16 11 -6 20 -8 20 -6 0 3 -9 10 -20 16
-11 6 -20 8 -20 6z"/>
</g>
</svg>
